<svg xmlns="http://www.w3.org/2000/svg" width="510" height="510" viewBox="0 0 510 510">
  <g fill="#33404D" transform="translate(35 74)">
    <path d="M320,95 C320,101 300,100 290,100 C262,100 241,112 224,120 C185,98 234,68 272,70 C299,71 316,76 320,95 Z M254,81 C242,88 223,87 222,107 C239,108 242,94 259,95 C257,90 258,83 254,81 Z M308,90 C307,84 302,81 295,82 C294,90 304,86 308,90 Z M160,100 C166,99 171,97 175,100 C175,109 165,108 160,112 C160,120 160,127 160,135 C153,141 144,144 139,152 C143,162 151,165 160,170 C166,170 170,170 170,170 C170,170 170,180 160,180 C150,180 138,167 132,160 C129,162 128,165 123,165 C124,161 121,160 121,158 C111,160 112,160 100,160 C121,150 131,141 150,129 C150,123 150,118 150,112 C135,101 97,109 80,100 C93,66 148,82 160,100 Z M101,93 C107,95 116,94 121,92 C115,90 106,91 101,93 Z M270,110 C282,112 281,120 303,120 C341,120 342,100 360,100 C385,100 400,116 400,140 C400,150 399,150 390,160 C390,150 390,150 390,140 C388,123 380,110 360,110 C354,111 345,120 338,123 C328,127 316,130 304,130 C284,130 270,120 270,110 Z"/>
    <path d="M90,130 C95,129 100,120 110,120 C110,140 95,140 80,140 C79,134 75,133 70,130 C60,130 40,130 40,130 C47,114 79,119 90,130 Z M240,148 C240,170 240,170 220,170 C220,160 232,163 230,155 C228,147 219,152 210,148 C212,134 235,141 240,148 Z M210,162 C210,165 211,169 209,170 C200,170 190,170 180,167 C181,158 201,160 210,162 Z"/>
    <path d="M226,0 L226,20 C243,20 260,20 277,21 C287,21 296,21 306,21 L307,21 C311,21 314,21 318,21 C321,21 324,21 327,21 C330,21 331,21 332,21 C338,22 351,34 359,47 C361,51 363,56 365,62 C367,69 370,76 373,82 C380,94 390,103 399,111 C415,125 423,132 418,154 C416,161 411,167 402,175 C394,183 384,192 377,205 C374,211 372,217 370,222 C369,225 368,228 367,230 C353,255 307,276 285,286 C276,290 266,295 257,300 C240,309 223,318 209,322 C199,325 186,327 172,330 C164,332 155,333 147,335 C127,339 110,341 95,341 C80,341 68,339 59,335 C49,331 39,320 37,314 C34,302 37,282 39,263 C42,237 45,210 39,186 C36,175 32,166 28,158 C21,144 17,135 21,120 C22,115 25,111 32,105 C42,96 56,83 57,56 C96,24 161,20 226,20 L226,0 M226,0 C150,0 79,6 37,46 C40,87 8,86 2,114 C-6,148 14,164 20,190 C29,229 11,285 18,318 C21,332 37,347 51,353 C64,359 79,361 95,361 C113,361 133,358 151,354 C175,349 199,345 215,341 C239,334 268,316 294,304 C328,288 369,267 385,239 C389,232 390,222 394,214 C407,191 431,181 437,158 C449,108 406,101 390,72 C385,63 382,48 376,37 C368,23 351,4 336,1 C334,1 331,0 327,0 C321,0 314,1 307,1 C307,1 306,1 306,1 C280,1 253,0 226,0 L226,0 Z"/>
    <path d="M160,220 C121,220 95,211 80,194 C66,177 70,159 70,158 C71,153 76,149 82,150 C87,151 91,156 90,162 C90,163 88,172 96,181 C103,190 120,200 160,200 C219,200 260,182 293,168 C314,159 333,150 350,150 C356,150 360,154 360,160 C360,166 356,170 350,170 C337,170 321,177 301,186 C268,200 223,220 160,220 Z"/>
    <path d="M370,180 C368,180 367,180 366,179 L340,166 L340,140 C340,134 344,130 350,130 C356,130 360,134 360,140 L360,154 L374,161 C379,163 381,169 378,174 C377,178 374,180 370,180 Z"/>
    <path d="M140,300 C125,300 99,297 81,281 C67,269 60,252 60,230 C60,199 70,168 71,167 C73,162 78,159 84,161 C89,163 92,168 90,174 C90,174 81,203 81,231 C81,247 86,259 95,268 C115,286 149,282 150,282 C150,282 151,282 151,282 C268,282 301,238 323,208 C329,200 335,192 341,187 L341,160 C341,154 345,150 351,150 C357,150 361,154 361,160 L361,190 C361,193 359,196 357,198 C351,202 346,209 339,218 C315,251 278,300 152,300 C149,300 145,300 140,300 Z"/>
    <path d="M365,169 C359,171 361,170 355,169 C351,172 342,182 345,189 C321,216 315,220 305,239 C270,278 224,294 144,290 C118,289 88,286 76,273 C56,252 70,190 73,163 C75,159 73,152 76,151 C85,154 80,167 83,175 C89,191 119,201 141,203 C223,213 292,170 346,151 C348,147 346,153 350,150 C357,152 343,155 345,159 C351,169 364,159 365,169 Z M310,178 C310,184 310,192 310,197 C331,193 334,193 335,169 C317,170 325,174 310,178 Z M250,197 C250,205 253,211 253,218 C272,210 298,210 300,184 C283,186 268,194 250,197 Z M84,221 C85,213 90,199 85,192 C81,197 72,217 84,221 Z M96,226 C102,224 106,230 108,227 C104,220 112,214 111,207 C104,207 102,203 96,201 C91,206 96,218 96,226 Z M239,202 C225,205 214,207 200,211 C200,217 200,225 200,230 C230,230 229,226 244,223 C243,216 243,206 239,202 Z M116,227 C126,230 137,231 150,230 C149,225 151,215 150,213 C140,212 128,212 121,208 C119,214 119,223 116,227 Z M161,213 C161,219 160,225 160,230 C170,230 180,229 190,230 C190,224 190,216 190,211 C179,210 172,214 161,213 Z M258,232 C256,246 265,250 267,261 C283,255 294,244 307,235 C301,232 302,222 300,215 C288,223 273,228 258,232 Z M206,247 C205,258 208,266 207,276 C229,277 242,271 257,266 C254,255 247,248 247,234 C235,240 223,246 206,247 Z M104,273 C101,263 99,254 91,250 C90,256 94,258 94,264 C93,268 88,266 87,267 C91,271 98,272 104,273 Z M163,254 C163,264 167,270 166,280 C176,280 189,281 197,279 C197,274 195,261 196,251 C187,253 174,255 163,254 Z M114,274 C118,276 122,278 129,277 C128,269 123,265 122,257 C116,257 114,253 107,254 C108,262 117,266 114,274 Z"/>
  </g>
</svg>
